<?xml version="1.0" encoding="UTF-8" standalone="no"?>
<!-- Created with Inkscape (http://www.inkscape.org/) -->

<svg
   version="1.1"
   id="svg2"
   xml:space="preserve"
   width="535.32001"
   height="413.12"
   viewBox="0 0 535.32001 413.12"
   sodipodi:docname="headphones.svg"
   inkscape:version="1.1 (c4e8f9ed74, 2021-05-24)"
   xmlns:inkscape="http://www.inkscape.org/namespaces/inkscape"
   xmlns:sodipodi="http://sodipodi.sourceforge.net/DTD/sodipodi-0.dtd"
   xmlns="http://www.w3.org/2000/svg"
   xmlns:svg="http://www.w3.org/2000/svg"><defs
     id="defs6"><clipPath
       clipPathUnits="userSpaceOnUse"
       id="clipPath22"><path
         d="m 1103.34,2319.34 c 0,0 -251.832,39.82 -571.07,-133.29 C 213.02,2012.86 88.5078,1798.14 88.5078,1798.14 c 0,0 140.8552,294.34 490.0622,459.59 349.086,165.24 524.77,61.61 524.77,61.61 z"
         id="path20" /></clipPath><linearGradient
       x1="0"
       y1="0"
       x2="1"
       y2="0"
       gradientUnits="userSpaceOnUse"
       gradientTransform="matrix(1038.23,469.439,469.439,-1038.23,43.7891,1897.04)"
       spreadMethod="pad"
       id="linearGradient30"><stop
         style="stop-opacity:1;stop-color:#bdbcbc"
         offset="0"
         id="stop24" /><stop
         style="stop-opacity:1;stop-color:#fbfbfb"
         offset="0.489011"
         id="stop26" /><stop
         style="stop-opacity:1;stop-color:#bdbcbc"
         offset="1"
         id="stop28" /></linearGradient><clipPath
       clipPathUnits="userSpaceOnUse"
       id="clipPath42"><path
         d="m 2143.78,1031.63 c 0,0 -138.02,370.18 -525.71,464.3 -387.49,94.14 -976.726,-107 -1133.992,-481.09 -157.176,-373.871 -25.816,-654.879 -25.816,-654.879 0,0 -263.16,431.828 34.226,821.109 372.672,488.16 1029.202,555.75 1350.892,307.89 280.88,-216.37 300.4,-457.33 300.4,-457.33 z"
         id="path40" /></clipPath><linearGradient
       x1="0"
       y1="0"
       x2="1"
       y2="0"
       gradientUnits="userSpaceOnUse"
       gradientTransform="matrix(1672.51,756.225,756.225,-1672.51,292.881,718.25)"
       spreadMethod="pad"
       id="linearGradient50"><stop
         style="stop-opacity:1;stop-color:#bdbcbc"
         offset="0"
         id="stop44" /><stop
         style="stop-opacity:1;stop-color:#fbfbfb"
         offset="0.489011"
         id="stop46" /><stop
         style="stop-opacity:1;stop-color:#bdbcbc"
         offset="1"
         id="stop48" /></linearGradient><clipPath
       clipPathUnits="userSpaceOnUse"
       id="clipPath60"><path
         d="m 2499.55,2980.4 c -21.27,-17.83 -13.62,-63.07 10.41,-55.69 23.98,7.27 363.78,131.36 729.16,41 365.46,-90.45 460.35,-360.95 396.76,-593 -63.45,-231.37 -199.86,-341.09 -229.68,-381.5 -17.08,-23.26 21.86,-73.03 73.99,-50.59 51.99,22.31 379.22,369.5 286.8,685.45 -110.84,378.87 -479.38,443.95 -739.72,442.47 -251.07,-1.51 -491.35,-57.31 -527.72,-88.14 z"
         id="path58" /></clipPath><linearGradient
       x1="0"
       y1="0"
       x2="1"
       y2="0"
       gradientUnits="userSpaceOnUse"
       gradientTransform="matrix(949.97,429.53,429.53,-949.97,2752.72,2354.43)"
       spreadMethod="pad"
       id="linearGradient68"><stop
         style="stop-opacity:1;stop-color:#bdbcbc"
         offset="0"
         id="stop62" /><stop
         style="stop-opacity:1;stop-color:#fbfbfb"
         offset="0.489011"
         id="stop64" /><stop
         style="stop-opacity:1;stop-color:#bdbcbc"
         offset="1"
         id="stop66" /></linearGradient><clipPath
       clipPathUnits="userSpaceOnUse"
       id="clipPath78"><path
         d="m 2461.64,2949.82 c -5.5,1.02 -96.29,-29.43 -179.71,-65.2 -83.5,-35.86 -159.78,-76.99 -163.63,-82.98 -7.62,-12.03 -5.24,-20.02 2.44,-30.8 7.63,-10.66 334.89,132.65 341.09,146.84 6.2,14.06 21.92,28.45 -0.19,32.14 z"
         id="path76" /></clipPath><linearGradient
       x1="0"
       y1="0"
       x2="1"
       y2="0"
       gradientUnits="userSpaceOnUse"
       gradientTransform="matrix(358.144,161.935,161.935,-358.144,2114.56,2781.77)"
       spreadMethod="pad"
       id="linearGradient86"><stop
         style="stop-opacity:1;stop-color:#bdbcbc"
         offset="0"
         id="stop80" /><stop
         style="stop-opacity:1;stop-color:#fbfbfb"
         offset="0.489011"
         id="stop82" /><stop
         style="stop-opacity:1;stop-color:#bdbcbc"
         offset="1"
         id="stop84" /></linearGradient><clipPath
       clipPathUnits="userSpaceOnUse"
       id="clipPath96"><path
         d="m 2462.94,2884.1 c -16.4,2.73 -79.18,-34.75 -163.32,-67 -84.16,-32.26 -151.15,-58.4 -167.35,-69.92 -16.24,-11.64 38.19,-79.8 76.2,-193.57 37.86,-113.7 44.04,-161.14 67.83,-168.77 23.8,-7.58 374.78,6.19 362.96,31.46 -11.82,25.12 -57.47,166.94 -102.69,269.42 -45.14,102.39 -49.31,194.28 -73.63,198.38 z"
         id="path94" /></clipPath><linearGradient
       x1="0"
       y1="0"
       x2="1"
       y2="0"
       gradientUnits="userSpaceOnUse"
       gradientTransform="matrix(-542.727,260.845,260.845,542.727,2674.87,2487.88)"
       spreadMethod="pad"
       id="linearGradient104"><stop
         style="stop-opacity:1;stop-color:#bdbcbc"
         offset="0"
         id="stop98" /><stop
         style="stop-opacity:1;stop-color:#fbfbfb"
         offset="0.489011"
         id="stop100" /><stop
         style="stop-opacity:1;stop-color:#bdbcbc"
         offset="1"
         id="stop102" /></linearGradient><clipPath
       clipPathUnits="userSpaceOnUse"
       id="clipPath114"><path
         d="m 3363.15,1942.87 c -15.29,-1.46 -93.25,-69.42 -156.97,-143.85 -63.86,-74.38 -147.25,-175.81 -138.15,-188.75 9.17,-12.93 44.44,-39.81 57.88,-26.84 13.65,12.84 49.81,80.52 134.17,176.08 84.46,95.6 165.6,149.96 155.8,159.23 -9.77,9.31 -31.53,26.21 -52.73,24.13 z"
         id="path112" /></clipPath><linearGradient
       x1="0"
       y1="0"
       x2="1"
       y2="0"
       gradientUnits="userSpaceOnUse"
       gradientTransform="matrix(404.843,183.05,183.05,-404.843,3040.57,1670.86)"
       spreadMethod="pad"
       id="linearGradient122"><stop
         style="stop-opacity:1;stop-color:#bdbcbc"
         offset="0"
         id="stop116" /><stop
         style="stop-opacity:1;stop-color:#fbfbfb"
         offset="0.489011"
         id="stop118" /><stop
         style="stop-opacity:1;stop-color:#bdbcbc"
         offset="1"
         id="stop120" /></linearGradient><clipPath
       clipPathUnits="userSpaceOnUse"
       id="clipPath132"><path
         d="m 3424.82,1890.86 c -18.09,8.39 -285.86,-308.96 -285.38,-327.28 0.48,-18.31 62.92,-101.91 107.54,-204.23 44.69,-102.48 46.74,-197.62 70.63,-196.31 24.01,1.47 270.35,163.86 288.92,208.25 18.47,44.27 -11.89,188 -76.2,313.83 -64.41,125.86 -87.04,197.12 -105.51,205.74 z"
         id="path130" /></clipPath><linearGradient
       x1="0"
       y1="0"
       x2="1"
       y2="0"
       gradientUnits="userSpaceOnUse"
       gradientTransform="matrix(-454.972,218.668,218.668,454.972,3622.95,1405.36)"
       spreadMethod="pad"
       id="linearGradient140"><stop
         style="stop-opacity:1;stop-color:#bdbcbc"
         offset="0"
         id="stop134" /><stop
         style="stop-opacity:1;stop-color:#fbfbfb"
         offset="0.489011"
         id="stop136" /><stop
         style="stop-opacity:1;stop-color:#bdbcbc"
         offset="1"
         id="stop138" /></linearGradient><clipPath
       clipPathUnits="userSpaceOnUse"
       id="clipPath150"><path
         d="m 2097.67,939.031 c 0,0 -133.87,248.959 -447.53,338.329 C 1280.7,1382.68 807.387,1072.72 706.309,845.469 605.395,618.25 646.77,427.422 789.973,244.02 933.191,60.6211 1094.54,29.3789 1211.85,28.5 c 117.27,-0.9805 239.97,29.2695 239.97,29.2695 L 1332.88,26.8398 c 0,0 -311.87,-62.6679 -577.083,82.7302 C 490.59,254.949 395.934,511.672 456.656,836.738 517.477,1161.62 873.48,1372.29 873.48,1372.29 c 0,0 -136.171,-54.64 -240.019,-163.95 C 529.594,1099 420.934,882.52 420.934,882.52 c 0,0 22.64,428.03 645.576,655.88 555.41,203.18 837.28,-134.52 837.28,-134.52 0,0 -87.38,54.63 -173.64,71.11 -58.75,11.31 -156.79,47.55 -156.79,47.55 0,0 175.46,-85.81 288.44,-187.28 143,-128.45 246.99,-274.99 257.57,-335.401 6.85,-39.519 -21.7,-60.828 -21.7,-60.828 z"
         id="path148" /></clipPath><linearGradient
       x1="0"
       y1="0"
       x2="1"
       y2="0"
       gradientUnits="userSpaceOnUse"
       gradientTransform="matrix(1584.53,716.446,716.446,-1584.53,466.895,442.26)"
       spreadMethod="pad"
       id="linearGradient158"><stop
         style="stop-opacity:1;stop-color:#bdbcbc"
         offset="0"
         id="stop152" /><stop
         style="stop-opacity:1;stop-color:#fbfbfb"
         offset="0.489011"
         id="stop154" /><stop
         style="stop-opacity:1;stop-color:#bdbcbc"
         offset="1"
         id="stop156" /></linearGradient><clipPath
       clipPathUnits="userSpaceOnUse"
       id="clipPath168"><path
         d="m 1477.02,1110.73 c 0,0 -223.15,-64.57 -419.74,-207.269 C 860.547,760.609 754.246,513.469 840.254,328.332 926.367,143.191 1142.38,76.3203 1142.38,76.3203 c 0,0 -265.903,18.4805 -376.599,293.0387 C 655.105,644 911.199,903.871 1028.63,980.27 c 219.31,142.77 448.39,130.46 448.39,130.46 z"
         id="path166" /></clipPath><linearGradient
       x1="0"
       y1="0"
       x2="1"
       y2="0"
       gradientUnits="userSpaceOnUse"
       gradientTransform="matrix(869.257,393.036,393.036,-869.257,758.115,385.17)"
       spreadMethod="pad"
       id="linearGradient176"><stop
         style="stop-opacity:1;stop-color:#bdbcbc"
         offset="0"
         id="stop170" /><stop
         style="stop-opacity:1;stop-color:#fbfbfb"
         offset="0.489011"
         id="stop172" /><stop
         style="stop-opacity:1;stop-color:#bdbcbc"
         offset="1"
         id="stop174" /></linearGradient><clipPath
       clipPathUnits="userSpaceOnUse"
       id="clipPath190"><path
         d="m 2043.55,586.391 -95.78,-29.18 c 0,0 -39.38,-108.879 -214.17,-245.941 -174.87,-137.122 -320.93,-205.098 -320.93,-205.098 0,0 180.42,35.699 367.75,180.109 168.27,129.551 257.54,294.449 263.13,300.11 z"
         id="path188" /></clipPath><linearGradient
       x1="0"
       y1="0"
       x2="1"
       y2="0"
       gradientUnits="userSpaceOnUse"
       gradientTransform="matrix(704.071,318.346,318.346,-704.071,1376.57,185.99)"
       spreadMethod="pad"
       id="linearGradient198"><stop
         style="stop-opacity:1;stop-color:#bdbcbc"
         offset="0"
         id="stop192" /><stop
         style="stop-opacity:1;stop-color:#fbfbfb"
         offset="0.489011"
         id="stop194" /><stop
         style="stop-opacity:1;stop-color:#bdbcbc"
         offset="1"
         id="stop196" /></linearGradient></defs><sodipodi:namedview
     id="namedview4"
     pagecolor="#ffffff"
     bordercolor="#666666"
     borderopacity="1.0"
     inkscape:pageshadow="2"
     inkscape:pageopacity="0.0"
     inkscape:pagecheckerboard="0"
     showgrid="false"
     inkscape:zoom="1.382165"
     inkscape:cx="267.69597"
     inkscape:cy="206.56"
     inkscape:window-width="1920"
     inkscape:window-height="1154"
     inkscape:window-x="0"
     inkscape:window-y="22"
     inkscape:window-maximized="1"
     inkscape:current-layer="g8" /><g
     id="g8"
     inkscape:groupmode="layer"
     inkscape:label="ink_ext_XXXXXX"
     transform="matrix(1.3333333,0,0,-1.3333333,0,413.12)"><g
       id="g10"
       transform="scale(0.1)"><path
         d="m 1530.55,2107.52 c 0,0 51.45,-54.16 113.68,-178.42 62.41,-124.18 93.87,-228.13 93.87,-228.13 0,0 157.74,-75.97 311.69,-306.67 154.18,-230.79 134.07,-394.04 134.07,-394.04 0,0 47.14,65.8 108.53,70.58 61.48,4.7 120.92,53.34 120.92,53.34 0,0 -102.67,137.76 -36.83,229.79 50.72,70.85 152.63,95.46 205.4,71.28 52.61,-24.03 51.98,-50.53 51.98,-50.53 l 402.93,230.98 c 0,0 47.63,101.72 180.63,238.36 133.09,136.58 257.53,266.96 312.48,344.83 54.84,77.88 60.52,156.34 60.52,156.34 0,0 -184.17,109.02 -420.37,113.07 -235.99,4.04 -439.17,-65.61 -571.95,-88.53 -132.76,-23 -350.73,-15.85 -350.73,-15.85 0,0 -37.64,-62.27 -83.42,-75.37 -45.84,-13.03 -111.4,-50.73 -176.88,-85.03 -56.21,-29.5 -124.79,-73.95 -124.79,-73.95 0,0 23.8,-60.95 -56.65,-121.27 -80.22,-60.15 -145.34,-21.15 -172.28,36.39 -28.2,60.13 -63.97,100.41 -63.97,100.41 z m -127,434.57 c -33.29,60.64 -41.11,126.42 71.72,177.29 112.89,50.98 153.06,-46.83 153.06,-46.83 0,0 158.59,64.04 265,87.74 106.25,23.6 187.38,32.52 187.38,32.52 0,0 47.13,43.24 164.26,97.3 117.04,53.95 221.07,85.57 221.07,85.57 0,0 -20.1,82.93 472.92,118.71 492.9,35.69 705.71,-172.89 836.51,-384.51 130.79,-211.57 334.78,-717.96 189.05,-996.24 -145.83,-278.53 -316.11,-344.42 -316.11,-344.42 0,0 -28.98,-36.7 -158.9,-132.08 -129.83,-95.47 -207.89,-131.5 -207.89,-131.5 0,0 -66.84,-70.14 -156.77,-153.331 -89.83,-83.278 -241.03,-203.457 -241.03,-203.457 0,0 9.84,-78.922 -72.12,-134.68 -82.48,-56.012 -140.12,-22.57 -180.24,43.047 -40.06,65.41 -98.18,147.261 -98.18,147.261 0,0 0,0 -36.52,-3.32 -36.61,-3.109 -61.98,14.399 -61.98,14.399 L 2219.4,662.672 c 0,0 -137.39,-262.781 -336.77,-410.871 C 1683.2,103.828 1451.52,1.05859 1144.5,0 837.465,-0.789063 650.328,112.43 488.945,312.191 327.789,511.941 315.227,639.039 307.23,659.352 299.391,679.641 243.113,872.98 188.07,927.711 132.973,982.559 -3.51172,1161.92 0.0703125,1539.39 1.89453,1728.52 165.098,2110.06 550.707,2283.29 c 385.477,173.25 730.673,-2.79 730.673,-2.79 0,0 69.19,16.81 92.33,29.89 23.03,13.1 101.54,85.05 101.54,85.05 0,0 -38.51,85.98 -71.7,146.65"
         style="fill:#231f20;fill-opacity:1;fill-rule:nonzero;stroke:none"
         id="path12" /><path
         d="m 1601.11,1802.86 c 0,0 -318.86,600.73 -976.192,259.45 -525.5625,-272.88 -514.73,-856.09 -514.73,-856.09 0,0 -185.9419,618.76 569.828,963.24 685.244,312.29 921.094,-366.6 921.094,-366.6"
         style="fill:#959394;fill-opacity:1;fill-rule:nonzero;stroke:none"
         id="path14" /><g
         id="g16"><g
           id="g18"
           clip-path="url(#clipPath22)"><path
             d="m 1103.34,2319.34 c 0,0 -251.832,39.82 -571.07,-133.29 C 213.02,2012.86 88.5078,1798.14 88.5078,1798.14 c 0,0 140.8552,294.34 490.0622,459.59 349.086,165.24 524.77,61.61 524.77,61.61"
             style="fill:url(#linearGradient30);fill-opacity:1;fill-rule:nonzero;stroke:none"
             id="path32" /></g></g><path
         d="m 1851.08,1601.31 c 0,0 -259.27,286.04 -764.42,200.74 C 700.387,1736.89 437.613,1433.75 378.125,1328.39 268.508,1133.85 275.551,891.109 275.551,891.109 c 0,0 25.277,115.091 42.09,214.511 16.902,99.42 58.937,163.36 58.937,163.36 0,0 -0.465,-19.75 -2.844,-50.6 -2.324,-30.87 -1.105,-73.79 -1.105,-73.79 l 42.953,186.01 11.738,-64.56 37.071,84.64 14.148,-33.64 21.055,73.18 20.019,-48.9 54.657,87.35 16.457,-36.9 40.296,86.91 19.211,-54.42 37.547,70.38 31.52,-30.91 30.812,79.99 7.676,-38.21 32.016,71.29 14.554,-47.92 40.743,72.63 3.195,-31.79 50.742,65.23 9.152,-46.87 39.836,67 13.196,-39.14 29.265,54.75 20.112,-48.84 45.33,66.13 5.78,-49.35 55.93,78.57 13.67,-53.39 39.32,47.34 12.31,-44.8 37.83,56.13 10.09,-41.48 21.73,44.6 9.12,-46.98 67.46,62.48 0.26,-48.44 35.22,39.53 32.05,-45.26 15.85,59.89 25.02,-69.64 3.99,56.15 66.56,-59.67 -4.47,40.65 59.25,-69.77 -8.58,66.8 73.45,-69.29 -19.09,54.45 66.55,-59.63 -27.07,58.49 82.32,-67.91 -5.43,35.06 126.03,-61.2"
         style="fill:#959394;fill-opacity:1;fill-rule:nonzero;stroke:none"
         id="path34" /><g
         id="g36"><g
           id="g38"
           clip-path="url(#clipPath42)"><path
             d="m 2143.78,1031.63 c 0,0 -138.02,370.18 -525.71,464.3 -387.49,94.14 -976.726,-107 -1133.992,-481.09 -157.176,-373.871 -25.816,-654.879 -25.816,-654.879 0,0 -263.16,431.828 34.226,821.109 372.672,488.16 1029.202,555.75 1350.892,307.89 280.88,-216.37 300.4,-457.33 300.4,-457.33"
             style="fill:url(#linearGradient50);fill-opacity:1;fill-rule:nonzero;stroke:none"
             id="path52" /></g></g><g
         id="g54"><g
           id="g56"
           clip-path="url(#clipPath60)"><path
             d="m 2499.55,2980.4 c -21.27,-17.83 -13.62,-63.07 10.41,-55.69 23.98,7.27 363.78,131.36 729.16,41 365.46,-90.45 460.35,-360.95 396.76,-593 -63.45,-231.37 -199.86,-341.09 -229.68,-381.5 -17.08,-23.26 21.86,-73.03 73.99,-50.59 51.99,22.31 379.22,369.5 286.8,685.45 -110.84,378.87 -479.38,443.95 -739.72,442.47 -251.07,-1.51 -491.35,-57.31 -527.72,-88.14"
             style="fill:url(#linearGradient68);fill-opacity:1;fill-rule:nonzero;stroke:none"
             id="path70" /></g></g><g
         id="g72"><g
           id="g74"
           clip-path="url(#clipPath78)"><path
             d="m 2461.64,2949.82 c -5.5,1.02 -96.29,-29.43 -179.71,-65.2 -83.5,-35.86 -159.78,-76.99 -163.63,-82.98 -7.62,-12.03 -5.24,-20.02 2.44,-30.8 7.63,-10.66 334.89,132.65 341.09,146.84 6.2,14.06 21.92,28.45 -0.19,32.14"
             style="fill:url(#linearGradient86);fill-opacity:1;fill-rule:nonzero;stroke:none"
             id="path88" /></g></g><g
         id="g90"><g
           id="g92"
           clip-path="url(#clipPath96)"><path
             d="m 2462.94,2884.1 c -16.4,2.73 -79.18,-34.75 -163.32,-67 -84.16,-32.26 -151.15,-58.4 -167.35,-69.92 -16.24,-11.64 38.19,-79.8 76.2,-193.57 37.86,-113.7 44.04,-161.14 67.83,-168.77 23.8,-7.58 374.78,6.19 362.96,31.46 -11.82,25.12 -57.47,166.94 -102.69,269.42 -45.14,102.39 -49.31,194.28 -73.63,198.38"
             style="fill:url(#linearGradient104);fill-opacity:1;fill-rule:nonzero;stroke:none"
             id="path106" /></g></g><g
         id="g108"><g
           id="g110"
           clip-path="url(#clipPath114)"><path
             d="m 3363.15,1942.87 c -15.29,-1.46 -93.25,-69.42 -156.97,-143.85 -63.86,-74.38 -147.25,-175.81 -138.15,-188.75 9.17,-12.93 44.44,-39.81 57.88,-26.84 13.65,12.84 49.81,80.52 134.17,176.08 84.46,95.6 165.6,149.96 155.8,159.23 -9.77,9.31 -31.53,26.21 -52.73,24.13"
             style="fill:url(#linearGradient122);fill-opacity:1;fill-rule:nonzero;stroke:none"
             id="path124" /></g></g><g
         id="g126"><g
           id="g128"
           clip-path="url(#clipPath132)"><path
             d="m 3424.82,1890.86 c -18.09,8.39 -285.86,-308.96 -285.38,-327.28 0.48,-18.31 62.92,-101.91 107.54,-204.23 44.69,-102.48 46.74,-197.62 70.63,-196.31 24.01,1.47 270.35,163.86 288.92,208.25 18.47,44.27 -11.89,188 -76.2,313.83 -64.41,125.86 -87.04,197.12 -105.51,205.74"
             style="fill:url(#linearGradient140);fill-opacity:1;fill-rule:nonzero;stroke:none"
             id="path142" /></g></g><g
         id="g144"><g
           id="g146"
           clip-path="url(#clipPath150)"><path
             d="m 2097.67,939.031 c 0,0 -133.87,248.959 -447.53,338.329 C 1280.7,1382.68 807.387,1072.72 706.309,845.469 605.395,618.25 646.77,427.422 789.973,244.02 933.191,60.6211 1094.54,29.3789 1211.85,28.5 c 117.27,-0.9805 239.97,29.2695 239.97,29.2695 L 1332.88,26.8398 c 0,0 -311.87,-62.6679 -577.083,82.7302 C 490.59,254.949 395.934,511.672 456.656,836.738 517.477,1161.62 873.48,1372.29 873.48,1372.29 c 0,0 -136.171,-54.64 -240.019,-163.95 C 529.594,1099 420.934,882.52 420.934,882.52 c 0,0 22.64,428.03 645.576,655.88 555.41,203.18 837.28,-134.52 837.28,-134.52 0,0 -87.38,54.63 -173.64,71.11 -58.75,11.31 -156.79,47.55 -156.79,47.55 0,0 175.46,-85.81 288.44,-187.28 143,-128.45 246.99,-274.99 257.57,-335.401 6.85,-39.519 -21.7,-60.828 -21.7,-60.828"
             style="fill:url(#linearGradient158);fill-opacity:1;fill-rule:nonzero;stroke:none"
             id="path160" /></g></g><g
         id="g162"><g
           id="g164"
           clip-path="url(#clipPath168)"><path
             d="m 1477.02,1110.73 c 0,0 -223.15,-64.57 -419.74,-207.269 C 860.547,760.609 754.246,513.469 840.254,328.332 926.367,143.191 1142.38,76.3203 1142.38,76.3203 c 0,0 -265.903,18.4805 -376.599,293.0387 C 655.105,644 911.199,903.871 1028.63,980.27 c 219.31,142.77 448.39,130.46 448.39,130.46"
             style="fill:url(#linearGradient176);fill-opacity:1;fill-rule:nonzero;stroke:none"
             id="path178" /></g></g><path
         d="m 1913.89,2580.56 -43.32,-21.05 c 0,0 29.5,-34.69 46.48,-83.66 21.6,-62.37 -20.67,-121.58 -20.67,-121.58 l 84.31,27.46 c 0,0 6.81,40.43 -17.59,97.65 -24.28,57.19 -49.21,101.18 -49.21,101.18"
         style="fill:#ffffff;fill-opacity:1;fill-rule:nonzero;stroke:none"
         id="path180" /><path
         d="m 2923.81,1285.72 -54.52,-41.9 c 0,0 38.41,-8.41 72.05,-55.79 45.8,-64.57 38.59,-141.04 38.59,-141.04 l 17.95,38.65 c 0,0 -22.43,91 -43.59,134.32 -21.06,43.33 -30.48,65.76 -30.48,65.76"
         style="fill:#ffffff;fill-opacity:1;fill-rule:nonzero;stroke:none"
         id="path182" /><g
         id="g184"><g
           id="g186"
           clip-path="url(#clipPath190)"><path
             d="m 2043.55,586.391 -95.78,-29.18 c 0,0 -39.38,-108.879 -214.17,-245.941 -174.87,-137.122 -320.93,-205.098 -320.93,-205.098 0,0 180.42,35.699 367.75,180.109 168.27,129.551 257.54,294.449 263.13,300.11"
             style="fill:url(#linearGradient198);fill-opacity:1;fill-rule:nonzero;stroke:none"
             id="path200" /></g></g></g></g></svg>
